# xmcd
#
# Track frame offsets:
#	150
#	13945
#	26500
#	37705
#	48502
#	62918
#	74960
#	89689
#	100207
#	112778
#	121545
#	130892
#	143247
#	157224
#	167516
#	180500
#	194332
#	206591
#	218155
#	229017
#	248662
#	262929
#	277507
#	290628
#	303758
#	316764
#	334202
#
# Disc length: 4680 seconds
#
# Revision: 0
# Processed by: cddbd v1.5.2PL0 Copyright (c) Steve Scherf et al.
# Submitted via: EZCDAudioConverter 1.3.4.1
#
DISCID=7d12461b
DTITLE=P.F. Sloan - Here's Where I Belong
DYEAR=1900
DGENRE=
TTITLE0=P.F. Sloan - Sins Of A Family
TTITLE1=P.F. Sloan - Take Me For What I'm Worth
TTITLE2=P.F. Sloan - What Exactly's The Matter With Me
TTITLE3=P.F. Sloan - I'd Have To Be Out Of My Mind
TTITLE4=P.F. Sloan - Eve Of Destruction
TTITLE5=P.F. Sloan - This Mornin'
TTITLE6=P.F. Sloan - I Get Out Of Breath
TTITLE7=P.F. Sloan - This Is What I Was Made For
TTITLE8=P.F. Sloan - Ain't No Way I'm Gonna Change My Mind
TTITLE9=P.F. Sloan - All The Things I Do For You Baby
TTITLE10=P.F. Sloan - (Goes To Show) Just How Wrong You Can Be
TTITLE11=P.F. Sloan - What Am I Doing Here With You
TTITLE12=P.F. Sloan - From A Distance
TTITLE13=P.F. Sloan - The Man Behind The Red Balloon
TTITLE14=P.F. Sloan - Let Me Be
TTITLE15=P.F. Sloan - Here's Where You Belong
TTITLE16=P.F. Sloan - This Precious Time
TTITLE17=P.F. Sloan - Halloween Mary
TTITLE18=P.F. Sloan - I Found A Girl
TTITLE19=P.F. Sloan - On Top Of A Fence
TTITLE20=P.F. Sloan - Lollipop Train (You Never Had It So Good)
TTITLE21=P.F. Sloan - Upon A Painted Ocean
TTITLE22=P.F. Sloan - City Women
TTITLE23=P.F. Sloan - A Melody For You
TTITLE24=P.F. Sloan - Sunflower, Sunflower
TTITLE25=Philip Sloan - Karma (A Study Of Divinations)
TTITLE26=Philip Sloan - I Can't Help But Wonder, Elizabeth
EXTD=
EXTT0=
EXTT1=
EXTT2=
EXTT3=
EXTT4=
EXTT5=
EXTT6=
EXTT7=
EXTT8=
EXTT9=
EXTT10=
EXTT11=
EXTT12=
EXTT13=
EXTT14=
EXTT15=
EXTT16=
EXTT17=
EXTT18=
EXTT19=
EXTT20=
EXTT21=
EXTT22=
EXTT23=
EXTT24=
EXTT25=
EXTT26=
PLAYORDER=
